<?xml version="1.0" encoding="UTF-8"?>
<svg width="351px" height="207px" viewBox="0 0 351 207" version="1.1" xmlns="http://www.w3.org/2000/svg" xmlns:xlink="http://www.w3.org/1999/xlink">
    <title>Qz 2</title>
    <g id="Page-1" stroke="none" stroke-width="1" fill="none" fill-rule="evenodd">
        <g id="A0" transform="translate(-169.000000, -534.000000)">
            <g id="Qz-2" transform="translate(178.000000, 539.000000)">
                <polygon id="Path" fill="#232323" fill-rule="nonzero" points="342 202 342 175.2 266.444444 175.2 338.666667 98.4291667 338.666667 68 230.333333 68 230.333333 94.8 298.388889 94.8 298.388889 95.3583333 227 171.0125 227 202"></polygon>
                <circle id="oval-1" fill="#F12D2D" cx="81.2899247" cy="124.439968" r="19.322008"></circle>
                <circle id="oval-2" fill="#1366CE" cx="124.798342" cy="68.3383459" r="15.4576064"></circle>
                <circle id="oval-3" fill="#4FAE01" cx="212.54398" cy="27.8299284" r="11.5932048"></circle>
                <circle id="oval-4" fill="#F12D2D" cx="274.510004" cy="39.4231331" r="9.66100398"></circle>
                <circle id="oval-5" fill="#1366CE" cx="328.611627" cy="56.7451411" r="7.72880318"></circle>
                <g id="Q" transform="translate(7.952000, 11.884892)" stroke="#212121">
                    <path d="M85.0995313,173.866494 C97.6900146,173.710707 109.21865,171.490751 119.685437,167.206623 C130.152224,162.922496 139.177932,156.963664 146.762561,149.330128 C154.347189,141.696592 160.263199,132.583085 164.510591,121.989607 C168.757983,111.396128 170.881679,99.6342515 170.881679,86.7039763 C170.881679,73.4621283 168.757983,61.4665718 164.510591,50.7173069 C160.263199,39.968042 154.347189,30.7766416 146.762561,23.1431056 C139.177932,15.5095697 130.152224,9.70652448 119.685437,5.73397006 C109.21865,1.76141564 97.6900146,-0.146968347 85.0995313,0.00881810082 C72.6607407,0.00881810082 61.2458748,2.07298854 50.8549338,6.2013294 C40.4639928,10.3296703 31.5141313,16.2106087 24.0053491,23.8441446 C16.4965669,31.4776806 10.6184798,40.7080276 6.37108791,51.5351857 C2.12369597,62.3623439 0,74.396847 0,87.638695 C0,100.56897 2.12369597,112.330847 6.37108791,122.924325 C10.6184798,133.517804 16.4965669,142.592365 24.0053491,150.148007 C31.5141313,157.70365 40.4639928,163.545642 50.8549338,167.673983 C61.2458748,171.802324 72.6607407,173.866494 85.0995313,173.866494 Z" id="Path" stroke-width="32" fill-rule="nonzero"></path>
                    <rect id="Rectangle" fill="#212121" x="99.5945515" y="160.325987" width="114" height="29.0144043"></rect>
                    <rect id="Rectangle-Copy" fill="#F12D2D" x="82.9898945" y="188.930967" width="17.3474548" height="1"></rect>
                </g>
            </g>
        </g>
    </g>
</svg>